<?xml version="1.0" encoding="utf-8"?>
<svg xmlns="http://www.w3.org/2000/svg" viewBox="0 0 30 30" width="480" height="480">
  <path d="M4 5 A 2 2 0 0 0 2 7 A 2 2 0 0 0 4 9 A 2 2 0 0 0 6 7 A 2 2 0 0 0 4 5 z M 10 6 A 1.0001 1.0001 0 1 0 10 8L27 8 A 1.0001 1.0001 0 1 0 27 6L10 6 z M 4 13 A 2 2 0 0 0 2 15 A 2 2 0 0 0 4 17 A 2 2 0 0 0 6 15 A 2 2 0 0 0 4 13 z M 10 14C9.447 14 9 14.447 9 15C9 15.553 9.447 16 10 16L17.349609 16C18.894609 14.751 20.859 14 23 14L10 14 z M 23 16C19.134 16 16 19.134 16 23C16 26.866 19.134 30 23 30C26.866 30 30 26.866 30 23C30 19.134 26.866 16 23 16 z M 23 19C23.552 19 24 19.447 24 20L24 22L26 22C26.552 22 27 22.447 27 23C27 23.553 26.552 24 26 24L24 24L24 26C24 26.553 23.552 27 23 27C22.448 27 22 26.553 22 26L22 24L20 24C19.448 24 19 23.553 19 23C19 22.447 19.448 22 20 22L22 22L22 20C22 19.447 22.448 19 23 19 z M 4 21 A 2 2 0 0 0 2 23 A 2 2 0 0 0 4 25 A 2 2 0 0 0 6 23 A 2 2 0 0 0 4 21 z M 10 22C9.447 22 9 22.447 9 23C9 23.553 9.447 24 10 24L14.058594 24C14.021594 23.671 14 23.338 14 23C14 22.662 14.021594 22.329 14.058594 22L10 22 z" fill="#FFFFFF" />
</svg>