<svg id="visual" viewBox="0 0 960 540" width="960" height="540" xmlns="http://www.w3.org/2000/svg" xmlns:xlink="http://www.w3.org/1999/xlink" version="1.1"><rect x="0" y="0" width="960" height="540" fill="#ffffff"></rect><defs><linearGradient id="grad1_0" x1="43.8%" y1="100%" x2="100%" y2="0%"><stop offset="14.444444444444446%" stop-color="#89aeff" stop-opacity="1"></stop><stop offset="85.55555555555554%" stop-color="#89aeff" stop-opacity="1"></stop></linearGradient></defs><defs><linearGradient id="grad1_1" x1="43.8%" y1="100%" x2="100%" y2="0%"><stop offset="14.444444444444446%" stop-color="#89aeff" stop-opacity="1"></stop><stop offset="85.55555555555554%" stop-color="#ffffff" stop-opacity="1"></stop></linearGradient></defs><defs><linearGradient id="grad2_0" x1="0%" y1="100%" x2="56.3%" y2="0%"><stop offset="14.444444444444446%" stop-color="#89aeff" stop-opacity="1"></stop><stop offset="85.55555555555554%" stop-color="#89aeff" stop-opacity="1"></stop></linearGradient></defs><defs><linearGradient id="grad2_1" x1="0%" y1="100%" x2="56.3%" y2="0%"><stop offset="14.444444444444446%" stop-color="#ffffff" stop-opacity="1"></stop><stop offset="85.55555555555554%" stop-color="#89aeff" stop-opacity="1"></stop></linearGradient></defs><g transform="translate(960, 540)"><path d="M-378 0C-377.3 -42.6 -376.7 -85.1 -355.7 -115.6C-334.7 -146 -293.4 -164.4 -271 -196.9C-248.6 -229.4 -245.2 -276.1 -222.2 -305.8C-199.1 -335.6 -156.5 -348.4 -116.2 -357.6C-75.9 -366.8 -37.9 -372.4 0 -378L0 0Z" fill="#c8d6ff"></path><path d="M-189 0C-188.7 -21.3 -188.3 -42.6 -177.8 -57.8C-167.4 -73 -146.7 -82.2 -135.5 -98.5C-124.3 -114.7 -122.6 -138 -111.1 -152.9C-99.6 -167.8 -78.2 -174.2 -58.1 -178.8C-37.9 -183.4 -19 -186.2 0 -189L0 0Z" fill="#89aeff"></path></g><g transform="translate(0, 0)"><path d="M378 0C348.2 31.8 318.5 63.6 309.1 100.4C299.7 137.3 310.8 179.2 301 218.7C291.1 258.1 260.4 295.2 222.2 305.8C184 316.4 138.4 300.5 100.1 308.1C61.9 315.8 30.9 346.9 0 378L0 0Z" fill="#c8d6ff"></path><path d="M189 0C174.1 15.9 159.2 31.8 154.5 50.2C149.9 68.6 155.4 89.6 150.5 109.3C145.6 129.1 130.2 147.6 111.1 152.9C92 158.2 69.2 150.3 50.1 154.1C30.9 157.9 15.5 173.4 0 189L0 0Z" fill="#89aeff"></path></g></svg>