<svg id="visual" viewBox="0 0 960 540" width="960" height="540" xmlns="http://www.w3.org/2000/svg" xmlns:xlink="http://www.w3.org/1999/xlink" version="1.1"><rect x="0" y="0" width="960" height="540" fill="#ffffff"></rect><defs><linearGradient id="grad1_0" x1="43.8%" y1="100%" x2="100%" y2="0%"><stop offset="14.444444444444446%" stop-color="#ffffff" stop-opacity="1"></stop><stop offset="85.55555555555554%" stop-color="#ffffff" stop-opacity="1"></stop></linearGradient></defs><defs><linearGradient id="grad2_0" x1="0%" y1="100%" x2="56.3%" y2="0%"><stop offset="14.444444444444446%" stop-color="#ffffff" stop-opacity="1"></stop><stop offset="85.55555555555554%" stop-color="#ffffff" stop-opacity="1"></stop></linearGradient></defs><g transform="translate(960, 540)"><path d="M-297 0C-283.4 -48.3 -269.9 -96.6 -246.8 -142.5C-223.8 -188.4 -191.2 -231.9 -148.5 -257.2C-105.8 -282.6 -52.9 -289.8 0 -297L0 0Z" fill="#a4c1ff"></path></g><g transform="translate(0, 0)"><path d="M297 0C275.6 43.8 254.2 87.5 232.1 134C210 180.5 187.3 229.6 148.5 257.2C109.7 284.8 54.9 290.9 0 297L0 0Z" fill="#a4c1ff"></path></g></svg>