<svg id="visual" viewBox="0 0 960 540" width="960" height="540" xmlns="http://www.w3.org/2000/svg" xmlns:xlink="http://www.w3.org/1999/xlink" version="1.1"><rect x="0" y="0" width="960" height="540" fill="#ffffff"></rect><defs><linearGradient id="grad1_0" x1="43.8%" y1="100%" x2="100%" y2="0%"><stop offset="14.444444444444446%" stop-color="#a4c1ff" stop-opacity="1"></stop><stop offset="85.55555555555554%" stop-color="#a4c1ff" stop-opacity="1"></stop></linearGradient></defs><defs><linearGradient id="grad1_1" x1="43.8%" y1="100%" x2="100%" y2="0%"><stop offset="14.444444444444446%" stop-color="#a4c1ff" stop-opacity="1"></stop><stop offset="85.55555555555554%" stop-color="#d4dfff" stop-opacity="1"></stop></linearGradient></defs><defs><linearGradient id="grad1_2" x1="43.8%" y1="100%" x2="100%" y2="0%"><stop offset="14.444444444444446%" stop-color="#ffffff" stop-opacity="1"></stop><stop offset="85.55555555555554%" stop-color="#d4dfff" stop-opacity="1"></stop></linearGradient></defs><defs><linearGradient id="grad2_0" x1="0%" y1="100%" x2="56.3%" y2="0%"><stop offset="14.444444444444446%" stop-color="#a4c1ff" stop-opacity="1"></stop><stop offset="85.55555555555554%" stop-color="#a4c1ff" stop-opacity="1"></stop></linearGradient></defs><defs><linearGradient id="grad2_1" x1="0%" y1="100%" x2="56.3%" y2="0%"><stop offset="14.444444444444446%" stop-color="#d4dfff" stop-opacity="1"></stop><stop offset="85.55555555555554%" stop-color="#a4c1ff" stop-opacity="1"></stop></linearGradient></defs><defs><linearGradient id="grad2_2" x1="0%" y1="100%" x2="56.3%" y2="0%"><stop offset="14.444444444444446%" stop-color="#d4dfff" stop-opacity="1"></stop><stop offset="85.55555555555554%" stop-color="#ffffff" stop-opacity="1"></stop></linearGradient></defs><g transform="translate(960, 540)"><path d="M-297 0C-284.4 -48.8 -271.7 -97.7 -248.5 -143.5C-225.4 -189.3 -191.7 -232.1 -148.5 -257.2C-105.3 -282.3 -52.7 -289.6 0 -297L0 0Z" fill="#eaefff"></path><path d="M-198 0C-189.6 -32.6 -181.1 -65.1 -165.7 -95.7C-150.3 -126.2 -127.8 -154.8 -99 -171.5C-70.2 -188.2 -35.1 -193.1 0 -198L0 0Z" fill="#bdd0ff"></path><path d="M-99 0C-94.8 -16.3 -90.6 -32.6 -82.8 -47.8C-75.1 -63.1 -63.9 -77.4 -49.5 -85.7C-35.1 -94.1 -17.6 -96.5 0 -99L0 0Z" fill="#a4c1ff"></path></g><g transform="translate(0, 0)"><path d="M297 0C287.6 50.7 278.2 101.4 254.6 147C231 192.6 193.3 233.1 148.5 257.2C103.7 281.4 51.9 289.2 0 297L0 0Z" fill="#eaefff"></path><path d="M198 0C191.7 33.8 185.5 67.6 169.7 98C154 128.4 128.9 155.4 99 171.5C69.1 187.6 34.6 192.8 0 198L0 0Z" fill="#bdd0ff"></path><path d="M99 0C95.9 16.9 92.7 33.8 84.9 49C77 64.2 64.4 77.7 49.5 85.7C34.6 93.8 17.3 96.4 0 99L0 0Z" fill="#a4c1ff"></path></g></svg>