<?xml version="1.0" encoding="utf-8"?>
<svg xmlns="http://www.w3.org/2000/svg" viewBox="0 0 16 16" width="96" height="96">
  <path d="M4.5 2C3.125 2 2 3.125 2 4.5C2 5.875 3.125 7 4.5 7C5.875 7 7 5.875 7 4.5C7 3.125 5.875 2 4.5 2 Z M 9.5 2C9.222656 2 9 2.222656 9 2.5L9 6.5C9 6.777344 9.222656 7 9.5 7L13.5 7C13.777344 7 14 6.777344 14 6.5L14 2.5C14 2.222656 13.777344 2 13.5 2 Z M 4.5 3C5.335938 3 6 3.664063 6 4.5C6 5.335938 5.335938 6 4.5 6C3.664063 6 3 5.335938 3 4.5C3 3.664063 3.664063 3 4.5 3 Z M 10 3L13 3L13 6L10 6 Z M 5.007813 9C4.832031 8.996094 4.667969 9.085938 4.578125 9.234375L2.078125 13.234375C1.980469 13.386719 1.972656 13.582031 2.0625 13.742188C2.152344 13.902344 2.316406 14 2.5 14L7.5 14C7.683594 14 7.847656 13.902344 7.9375 13.742188C8.027344 13.582031 8.019531 13.386719 7.921875 13.234375L5.421875 9.234375C5.332031 9.089844 5.175781 9 5.007813 9 Z M 10.453125 9C10.234375 9 10.042969 9.140625 9.976563 9.351563L9.023438 12.441406C8.960938 12.640625 9.03125 12.859375 9.195313 12.988281L11.699219 14.894531C11.875 15.03125 12.125 15.03125 12.300781 14.894531L14.800781 12.988281C14.96875 12.859375 15.039063 12.640625 14.980469 12.441406L14.023438 9.351563C13.957031 9.140625 13.765625 9 13.546875 9 Z M 10.824219 10L13.175781 10L13.921875 12.40625L12 13.875L10.078125 12.40625 Z M 5 10.441406L6.597656 13L3.402344 13Z" fill="#5B5B5B" />
</svg>