<?xml version="1.0" encoding="utf-8"?>
<svg xmlns="http://www.w3.org/2000/svg" viewBox="0 0 40 40" width="480" height="480">
  <g data-name="Слой 2">
    <path fill="#e0e0e0" d="M3.2,12.031l7.056,4.074a1.445,1.445,0,0,0,1.979-.581l.015-.026a1.446,1.446,0,0,0-.494-1.992L4.7,9.433a1.5,1.5,0,0,0-1.5,2.6Z" />
    <path fill="#9e9e9e" d="M27.824,15.5a1.443,1.443,0,0,0,1.975.575l7-4.043a1.5,1.5,0,0,0-1.5-2.6l-7,4.043a1.445,1.445,0,0,0-.491,2Z" />
    <path fill="#bdbdbd" d="M15.5,12.232l.026-.015a1.444,1.444,0,0,0,.573-1.974L12.031,3.2a1.5,1.5,0,0,0-2.6,1.5L13.5,11.742A1.446,1.446,0,0,0,15.5,12.232Z" />
    <path fill="#bdbdbd" d="M20.035,11h.015A1.4,1.4,0,0,0,21.5,9.619V1.463a1.5,1.5,0,0,0-3,0V9.62A1.39,1.39,0,0,0,19.929,11Z" />
    <path fill="#e0e0e0" d="M11.035,20v-.071A1.393,1.393,0,0,0,9.655,18.5H1.463a1.5,1.5,0,0,0,0,3H9.655a1.393,1.393,0,0,0,1.381-1.429Z" />
    <path fill="#9e9e9e" d="M24.528,12.206a1.445,1.445,0,0,0,1.99-.495L30.567,4.7a1.5,1.5,0,0,0-2.6-1.5l-4.05,7.015a1.444,1.444,0,0,0,.583,1.979Z" />
    <path fill="#616161" d="M24.528,27.794l-.026.015a1.444,1.444,0,0,0-.583,1.979l4.05,7.015a1.5,1.5,0,0,0,2.6-1.5l-4.049-7.014A1.445,1.445,0,0,0,24.528,27.794Z" />
    <path fill="#eee" d="M12.211,24.438a1.4,1.4,0,0,0-1.92-.565L3.2,27.969a1.5,1.5,0,0,0,1.5,2.6l7.093-4.095a1.4,1.4,0,0,0,.479-1.932C12.249,24.506,12.23,24.472,12.211,24.438Z" />
    <path fill="#757575" d="M38.537,18.5H30.472a1.453,1.453,0,0,0-1.437,1.485v.03A1.453,1.453,0,0,0,30.472,21.5h8.065a1.5,1.5,0,0,0,0-3Z" />
    <path fill="#757575" d="M36.8,27.969l-7-4.044a1.444,1.444,0,0,0-1.975.576l-.015.026a1.445,1.445,0,0,0,.491,2l7,4.043a1.5,1.5,0,0,0,1.5-2.6Z" />
    <path fill="#616161" d="M20.035,29h-.106A1.39,1.39,0,0,0,18.5,30.38v8.157a1.5,1.5,0,0,0,3,0V30.381A1.4,1.4,0,0,0,20.05,29Z" />
    <path fill="#424242" d="M15.462,27.746a1.4,1.4,0,0,0-1.94.474L9.433,35.3a1.5,1.5,0,0,0,2.6,1.5L16.12,29.72a1.4,1.4,0,0,0-.557-1.916Z" />
  </g>
</svg>