<?xml version="1.0" encoding="utf-8"?>
<svg xmlns="http://www.w3.org/2000/svg" viewBox="0 0 24 24" width="480" height="480">
  <path d="M5 3L5 5L7 5L7 6.34375C7 7.6692803 7.526238 8.9415505 8.4648438 9.8789062L10.585938 12L8.4648438 14.121094C7.526238 15.05845 7 16.33072 7 17.65625L7 19L5 19L5 21L19 21L19 19L17 19L17 17.65625C17 16.330841 16.472461 15.058398 15.535156 14.121094L13.414062 12L15.535156 9.8789062C16.473212 8.9408509 17 7.6692803 17 6.34375L17 5L19 5L19 3L5 3 z M 9 5L15 5L15 6.34375C15 7.1402197 14.685038 7.900899 14.121094 8.4648438L12 10.585938L9.8789062 8.4628906C9.315512 7.9002464 9 7.1402197 9 6.34375L9 5 z M 12 13.414062L14.121094 15.535156C14.683789 16.097852 15 16.861659 15 17.65625L15 19L13.802734 19C13.309819 17.674682 12 17 12 17C12 17 10.690181 17.674682 10.197266 19L9 19L9 17.65625C9 16.85978 9.315512 16.099754 9.8789062 15.537109L12 13.414062 z" fill="#5B5B5B" />
</svg>