<?xml version="1.0" encoding="utf-8"?>
<svg xmlns="http://www.w3.org/2000/svg" viewBox="0 0 48 48" width="144" height="144">
  <path d="M24 4 A 2.0002 2.0002 0 0 0 22 6L22 8 A 2.0002 2.0002 0 0 0 25.992188 8.1992188C33.894841 9.1853827 40 15.822874 40 24C40 32.860089 32.860089 40 24 40C15.139911 40 8 32.860089 8 24C8 19.686171 9.6961689 15.793758 12.460938 12.916016 A 2.0002 2.0002 0 1 0 9.5761719 10.144531C6.12494 13.736788 4 18.633829 4 24C4 35.021911 12.978089 44 24 44C35.021911 44 44 35.021911 44 24C44 12.978089 35.021911 4 24 4 z M 15.978516 13.980469 A 2.0002 2.0002 0 0 0 14.585938 17.414062L21.007812 23.835938 A 3 3 0 0 0 24 27 A 3 3 0 0 0 24 21 A 3 3 0 0 0 23.835938 21.007812L17.414062 14.585938 A 2.0002 2.0002 0 0 0 15.978516 13.980469 z" fill="#5B5B5B" />
</svg>